<svg xmlns="http://www.w3.org/2000/svg" width="30" height="21" viewBox="0 0 30 21"><g><g><path fill="#737373" d="M1.598-.008h26.777c.568.166.953.437 1.246.874.172.257.484.8.32 1.342-.212.692-.66 1.241-1.343 1.467-.489.16-1.29.062-1.885.062H3.323c-.702 0-1.595.087-2.109-.125C.184 3.188-.393 1.796.415.71c.172-.23.519-.475.8-.593.128-.054.286-.044.383-.125zm.064 8.614h25.306c.524 0 1.208-.079 1.63.062.452.152.78.45 1.023.812.172.256.484.8.32 1.342-.212.691-.66 1.24-1.343 1.467-.489.16-1.29.062-1.885.062H3.483c-.656 0-1.566.118-2.109-.062-1.123-.375-1.82-1.808-.959-2.965.172-.23.519-.476.8-.593.137-.058.33-.047.447-.125zm0 8.613h25.306c.524 0 1.208-.078 1.63.063.452.151.78.449 1.023.812.172.256.484.8.32 1.342-.213.694-.659 1.236-1.343 1.466-.472.16-1.271.063-1.853.063H1.598c-1.067-.311-2.135-1.54-1.31-2.84.2-.317.561-.628.926-.78.138-.058.33-.047.448-.126z"/><path d="M1.598-.008h26.777c.568.166.953.437 1.246.874.172.257.484.8.32 1.342-.212.692-.66 1.241-1.343 1.467-.489.16-1.29.062-1.885.062H3.323c-.702 0-1.595.087-2.109-.125C.184 3.188-.393 1.796.415.71c.172-.23.519-.475.8-.593.128-.054.286-.044.383-.125zm.064 8.614h25.306c.524 0 1.208-.079 1.63.062.452.152.78.45 1.023.812.172.256.484.8.32 1.342-.212.691-.66 1.24-1.343 1.467-.489.16-1.29.062-1.885.062H3.483c-.656 0-1.566.118-2.109-.062-1.123-.375-1.82-1.808-.959-2.965.172-.23.519-.476.8-.593.137-.058.33-.047.447-.125zm0 8.613h25.306c.524 0 1.208-.078 1.63.063.452.151.78.449 1.023.812.172.256.484.8.32 1.342-.213.694-.659 1.236-1.343 1.466-.472.16-1.271.063-1.853.063H1.598c-1.067-.311-2.135-1.54-1.31-2.84.2-.317.561-.628.926-.78.138-.058.33-.047.448-.126z"/></g></g></svg>